<svg width="1303" height="385" viewBox="0 0 1303 385" fill="none" xmlns="http://www.w3.org/2000/svg">
<path d="M200.979 381.9L147.189 318.6C144.907 315.925 143.334 312.719 142.613 309.278C141.892 305.836 142.047 302.269 143.063 298.903C144.079 295.537 145.924 292.48 148.429 290.013C150.934 287.545 154.018 285.746 157.399 284.78L238.829 261.54L240.279 257.31C241.062 254.772 241.192 252.078 240.658 249.477C240.123 246.876 238.94 244.452 237.219 242.43L173.829 168.06C172.794 166.845 171.415 165.974 169.874 165.562C168.332 165.149 166.702 165.215 165.199 165.75L139.289 174.95C136.882 175.804 134.718 177.23 132.984 179.107C131.251 180.983 130 183.253 129.339 185.72L91.9791 325.22C91.6076 326.603 90.866 327.859 89.8341 328.853C88.8022 329.846 87.5189 330.54 86.1224 330.858C84.7259 331.177 83.2689 331.109 81.9081 330.662C80.5472 330.215 79.3341 329.405 78.399 328.32L48.4591 293.47C43.7814 288.028 40.5023 281.526 38.9061 274.53C37.3099 267.533 37.4448 260.253 39.2992 253.32L49.8092 214.04C50.4715 211.573 51.7229 209.304 53.4562 207.428C55.1894 205.552 57.3525 204.125 59.7591 203.27L64.109 201.67C65.3112 201.242 66.3918 200.529 67.2574 199.591C68.123 198.653 68.7477 197.52 69.0782 196.287C69.4087 195.054 69.4352 193.76 69.1549 192.515C68.8746 191.27 68.296 190.112 67.4691 189.14L15.2191 127.84C8.59256 120.068 3.95492 110.801 1.70591 100.838C-0.543097 90.8753 -0.335939 80.5151 2.30918 70.65L19.5892 6.13997C19.9611 4.75237 20.7052 3.49292 21.7411 2.49763C22.777 1.50234 24.0653 0.809095 25.4667 0.492993C26.868 0.17689 28.3291 0.249736 29.692 0.70393C31.0549 1.15812 32.2675 1.97632 33.1991 3.0699L124.149 109.77C126.011 111.955 128.436 113.589 131.16 114.496C133.883 115.404 136.803 115.549 139.604 114.917C142.404 114.284 144.979 112.899 147.049 110.91C149.119 108.92 150.606 106.403 151.349 103.63L156.809 83.2699C159.623 72.7582 165.111 63.1546 172.74 55.3946C180.368 47.6346 189.877 41.9827 200.339 38.9898L230.079 30.4798C231.42 30.0956 232.839 30.0746 234.192 30.4185C235.544 30.7625 236.78 31.4592 237.775 32.4376C238.769 33.4159 239.486 34.6406 239.853 35.9869C240.219 37.3331 240.221 38.7526 239.859 40.0999L217.569 123.27C217.409 123.888 217.398 124.535 217.539 125.158C217.68 125.781 217.968 126.361 218.379 126.85L300.509 223.21C307.134 230.981 311.771 240.246 314.02 250.207C316.269 260.168 316.062 270.526 313.419 280.39L304.729 312.82C304.552 313.483 304.206 314.088 303.723 314.575C303.241 315.063 302.64 315.416 301.979 315.6L229.979 336.21C228.671 336.583 227.483 337.288 226.529 338.257C225.576 339.226 224.89 340.426 224.539 341.74L214.599 378.83C214.229 380.22 213.484 381.482 212.448 382.479C211.411 383.476 210.121 384.17 208.718 384.486C207.315 384.802 205.852 384.729 204.488 384.273C203.123 383.817 201.91 382.996 200.979 381.9Z" fill="white"/>
<path d="M787.539 205.87V302.07H740.539V209.95C740.539 194.28 733.019 184.25 717.979 184.25C702.309 184.25 693.539 195.25 693.539 213.71V302.07H646.539V209.95C646.539 194.28 639.019 184.25 623.979 184.25C608.319 184.25 599.539 195.25 599.539 213.71V302.07H552.539V145.4H599.539V159.81C606.749 149.16 620.539 141.01 641.539 141.01C660.029 141.01 673.819 148.53 682.589 161.69C691.359 149.16 705.779 141.01 728.029 141.01C764.039 141.01 787.539 166.71 787.539 205.87Z" fill="white"/>
<path d="M967.099 145.4V302.07H920.099V287.35C909.759 299.25 894.399 306.46 873.409 306.46C832.409 306.46 798.519 270.46 798.519 223.74C798.519 177.02 832.359 141.01 873.409 141.01C894.409 141.01 909.759 148.22 920.099 160.13V145.4H967.099ZM920.099 223.74C920.099 200.24 904.429 185.51 882.809 185.51C861.189 185.51 845.519 200.24 845.519 223.74C845.519 247.24 861.189 261.96 882.809 261.96C904.429 261.96 920.099 247.24 920.099 223.74Z" fill="white"/>
<path d="M1138.51 205.87V302.07H1091.51V212.77C1091.51 193.34 1079.29 184.25 1064.25 184.25C1047.02 184.25 1035.11 194.25 1035.11 216.53V302.07H988.109V145.4H1035.11V160.13C1043.57 148.53 1059.24 141.01 1079.92 141.01C1111.56 141.01 1138.51 163.6 1138.51 205.87Z" fill="white"/>
<path d="M1302.98 145.399L1249.4 297.399C1231.85 347.229 1203.96 366.969 1160.09 364.769V320.909C1182.03 320.909 1192.37 314.009 1199.26 294.909L1136.98 145.399H1188.68L1223.46 241.279L1252.92 145.399H1302.98Z" fill="white"/>
<path d="M531.58 82V301.34H484.58V286.62C474.24 298.52 458.89 305.73 437.89 305.73C396.84 305.73 363 269.73 363 223.01C363 176.29 396.84 140.28 437.89 140.28C458.89 140.28 474.24 147.49 484.58 159.4V82H531.58ZM484.58 223C484.58 199.5 468.91 184.77 447.29 184.77C425.67 184.77 410 199.5 410 223C410 246.5 425.67 261.23 447.29 261.23C468.91 261.23 484.58 246.54 484.58 223Z" fill="#F6F730"/>
</svg>
