<svg xmlns="http://www.w3.org/2000/svg" xmlns:xlink="http://www.w3.org/1999/xlink" viewBox="0 0 305.45 97.05"><defs><style>.cls-1{fill:#893ac9;}.cls-2{opacity:0.5;}.cls-3{fill:#fff;}.cls-4{fill:url(#linear-gradient);}</style><linearGradient id="linear-gradient" x1="49.31" y1="47.34" x2="305.45" y2="47.34" gradientUnits="userSpaceOnUse"><stop offset="0" stop-color="#ad1dbd"/><stop offset="0.29" stop-color="#5365db"/><stop offset="0.41" stop-color="#4578e3"/><stop offset="0.51" stop-color="#388aea"/><stop offset="0.77" stop-color="#1fbef4"/></linearGradient></defs><g id="Layer_2" data-name="Layer 2"><g id="Layer_1-2" data-name="Layer 1"><circle class="cls-1" cx="19.25" cy="77.8" r="16.25"/><g class="cls-2"><path class="cls-3" d="M19.25,61.55A16.25,16.25,0,1,1,3,77.8,16.26,16.26,0,0,1,19.25,61.55m0-3A19.25,19.25,0,1,0,38.5,77.8,19.28,19.28,0,0,0,19.25,58.55Z"/></g><path class="cls-4" d="M70.43,45.87l-13-17.3q-6.15-8.19-6.15-13.33a14.47,14.47,0,0,1,3.49-9.43A15,15,0,0,1,67,0Q74.6,0,79.93,7l10,13.13,9.3-11.83Q105.71,0,112.88,0a15.15,15.15,0,0,1,12.85,6.63,14.25,14.25,0,0,1,2.88,8.55q0,5.27-5,11.82L109.33,45.87l17.5,23.31a16.49,16.49,0,0,1,3.35,10.19,15.08,15.08,0,0,1-3.08,9.29,14.3,14.3,0,0,1-12,6q-7.59,0-12.58-6.56L89.91,71.57,77.27,88q-5.2,6.7-12.51,6.7A15,15,0,0,1,53.85,90.2a14.64,14.64,0,0,1-4.54-10.83,16.77,16.77,0,0,1,3.55-10.46ZM198.81,58l7.25,11.62a18.73,18.73,0,0,1,3,10,14.27,14.27,0,0,1-4.47,10.77,15.35,15.35,0,0,1-11,4.27A13.9,13.9,0,0,1,181,87.57L168.12,66.51V79.16a15.46,15.46,0,0,1-4.27,11,14.23,14.23,0,0,1-10.77,4.51q-7.94,0-12-5.68-3.69-5-3.69-13.12V18.39q0-17.7,19.07-17.71H176a31.49,31.49,0,0,1,17.91,5.57A32.87,32.87,0,0,1,206,20.71a34,34,0,0,1,2.87,13.47Q208.86,46.83,198.81,58ZM237.3.68h18.8q20.56,0,33.83,11.76,15.52,13.74,15.52,34.8a45.62,45.62,0,0,1-4.51,19.82A45.28,45.28,0,0,1,276.6,90.3q-9,3.69-24,3.69H239.55q-9.36,0-13.05-2.46a14.36,14.36,0,0,1-6.16-8.06c-.54-2-.82-5.47-.82-10.53V21.67q0-6.63.21-8.13a13.49,13.49,0,0,1,3.14-7.32Q227.6.68,237.3.68Z"/></g></g></svg>