<?xml version="1.0" encoding="UTF-8" standalone="no"?>
<svg
   id="svg18"
   version="1.1"
   fill="none"
   viewBox="0 0 951.06573 471.853"
   height="471.853"
   width="951.06573"
   sodipodi:docname="radixscanLandingPage.svg"
   inkscape:version="1.2.2 (732a01da63, 2022-12-09)"
   xmlns:inkscape="http://www.inkscape.org/namespaces/inkscape"
   xmlns:sodipodi="http://sodipodi.sourceforge.net/DTD/sodipodi-0.dtd"
   xmlns="http://www.w3.org/2000/svg"
   xmlns:svg="http://www.w3.org/2000/svg"
   xmlns:rdf="http://www.w3.org/1999/02/22-rdf-syntax-ns#"
   xmlns:cc="http://creativecommons.org/ns#"
   xmlns:dc="http://purl.org/dc/elements/1.1/">
  <sodipodi:namedview
     pagecolor="#ffffff"
     bordercolor="#666666"
     borderopacity="1"
     objecttolerance="10"
     gridtolerance="10"
     guidetolerance="10"
     inkscape:pageopacity="0"
     inkscape:pageshadow="2"
     inkscape:window-width="1280"
     inkscape:window-height="1001"
     id="namedview13"
     showgrid="false"
     inkscape:zoom="0.35355339"
     inkscape:cx="28.284271"
     inkscape:cy="-79.195959"
     inkscape:window-x="2552"
     inkscape:window-y="-8"
     inkscape:window-maximized="1"
     inkscape:current-layer="svg18"
     inkscape:showpageshadow="2"
     inkscape:pagecheckerboard="0"
     inkscape:deskcolor="#d1d1d1" />
  <metadata
     id="metadata24">
    <rdf:RDF>
      <cc:Work
         rdf:about="">
        <dc:format>image/svg+xml</dc:format>
        <dc:type
           rdf:resource="http://purl.org/dc/dcmitype/StillImage" />
        <dc:title />
      </cc:Work>
    </rdf:RDF>
  </metadata>
  <defs
     id="defs22">
    <rect
       x="412"
       y="82"
       width="424"
       height="328"
       id="rect849" />
  </defs>
  <rect
     id="rect2"
     fill="#003057"
     height="471.853"
     width="471.853"
     y="0"
     x="-28"
     style="fill:none" />
  <path
     style="stroke:#ffffff;stroke-opacity:1"
     id="path4"
     fill="#04c187"
     d="m 258.8013,113.57913 c -7.854,0 -14.996,4.554 -18.311,11.675 l -22.445,48.228 36.621,17.044 17.012,-36.554 h 84.05 v -40.393 z" />
  <path
     style="stroke:#ffffff;stroke-opacity:1"
     id="path6"
     fill="#04c187"
     d="m 41.067897,276.18413 h 30.4106 l 66.999803,92.769 c 4.195,5.809 11.154,8.96 18.288,8.281 7.133,-0.679 13.372,-5.087 16.396,-11.584 l 29.55,-63.493 -36.621,-17.044 -15.024,32.281 -52.889,-73.231 c -3.797,-5.258 -9.888,-8.372 -16.373,-8.372 H 41.067897 Z" />
  <path
     style="stroke:#ffffff;stroke-opacity:1"
     id="path8"
     fill="#04c187"
     d="m 203.7353,175.08113 -46.642,99.633 12.804,5.994 46.642,-99.633 z" />
  <path
     style="stroke:#ffffff;stroke-opacity:1"
     id="path10"
     fill="#04c187"
     d="m 178.3133,285.19113 50.064,-104.63 12.753,6.102 -50.064,104.63 z" />
  <path
     style="stroke:#ffffff;stroke-opacity:1"
     id="path12"
     fill="#04c187"
     d="m 253.0623,190.08413 -50.064,104.63 12.753,6.102 50.064,-104.63 z" />
  <path
     id="path14"
     fill="#ffffff"
     d="m 186.2093,195.93613 c 0.934,-0.611 1.195,-1.862 0.585,-2.796 -0.611,-0.933 -1.862,-1.195 -2.796,-0.585 -8.075,5.282 -14.804,12.451 -19.562,20.881 -0.548,0.972 -0.205,2.204 0.766,2.752 0.972,0.548 2.204,0.205 2.752,-0.767 4.439,-7.865 10.719,-14.556 18.255,-19.485 z" />
  <path
     style="fill:#274245;fill-opacity:1;stroke:none;stroke-opacity:1"
     id="path16"
     fill="white"
     d="m 158.7933,285.03913 c 25.682,25.682 66.203,27.479 93.961,5.391 l 44.221,44.221 c 3.155,3.155 8.27,3.155 11.425,0 3.155,-3.155 3.155,-8.27 0,-11.425 l -44.221,-44.221 c 22.089,-27.758 20.293,-68.28 -5.389,-93.962 -27.613,-27.614 -72.383,-27.614 -99.997,0 -27.613,27.613 -27.613,72.383 0,99.996 z m 11.425,-88.571 c -21.303,21.303 -21.303,55.843 0,77.147 21.291,21.291 55.804,21.303 77.11,0.036 l 0.036,-0.036 0.037,-0.036 c 21.267,-21.307 21.256,-55.82 -0.036,-77.111 -21.304,-21.304 -55.843,-21.304 -77.147,0 z"
     clip-rule="evenodd"
     fill-rule="evenodd" />
  <text
     xml:space="preserve"
     id="text847"
     style="font-size:85.3333px;font-family:'Reem Kufi';-inkscape-font-specification:'Reem Kufi, Normal';white-space:pre;shape-inside:url(#rect849);fill:#274245;fill-opacity:1;stroke:#5670eb;stroke-width:0.44"
     transform="matrix(1.4787161,0,0,1.4787161,-279.55401,52.007226)"><tspan
       x="412"
       y="155.24441"
       id="tspan973">RadixScan</tspan></text>
</svg>
