<svg width="150" height="42" viewBox="0 0 150 42" fill="none" xmlns="http://www.w3.org/2000/svg">
<path d="M68.7626 19.2754H64.9865V0.843628H72.9613C74.6161 0.843628 75.8748 1.36296 76.7374 2.40161C77.6 3.44027 78.0313 4.83101 78.0313 6.57385C78.0313 7.92938 77.776 9.07367 77.2655 10.0067C76.755 10.9397 75.998 11.5911 74.9946 11.9608L78.2162 19.2754H74.1231L71.2712 12.3041H68.7626V19.2754ZM72.4859 9.16169C72.9965 9.16169 73.3926 9.03846 73.6742 8.792C73.9735 8.52793 74.1231 8.07902 74.1231 7.44526V5.86087C74.1231 5.22711 73.9735 4.787 73.6742 4.54054C73.3926 4.27648 72.9965 4.14445 72.4859 4.14445H68.7626V9.16169H72.4859Z" fill="#011C7E"/>
<path d="M81.1038 0.843628H87.5734C88.7 0.843628 89.7035 1.01967 90.5837 1.37176C91.4815 1.70624 92.2385 2.24317 92.8547 2.98256C93.4708 3.72194 93.9461 4.67258 94.2806 5.83446C94.6151 6.99635 94.7823 8.4047 94.7823 10.0595C94.7823 11.7143 94.6151 13.1227 94.2806 14.2846C93.9461 15.4464 93.4708 16.3971 92.8547 17.1365C92.2385 17.8758 91.4815 18.4216 90.5837 18.7737C89.7035 19.1082 88.7 19.2754 87.5734 19.2754H81.1038V0.843628ZM87.5734 15.9746C89.7035 15.9746 90.7685 14.7423 90.7685 12.2777V7.84136C90.7685 5.37675 89.7035 4.14445 87.5734 4.14445H84.8799V15.9746H87.5734Z" fill="#011C7E"/>
<path d="M110.958 19.2754H106.601L103.247 12.6738H102.878L99.6296 19.2754H95.5894L100.791 9.82185L95.8799 0.843628H100.237L103.194 6.89073H103.617L106.601 0.843628H110.641L105.65 9.82185L110.958 19.2754Z" fill="#011C7E"/>
<path d="M67.6007 41.4569L63.9038 23.0251H67.6271L69.37 33.218L69.8453 37.3111H70.2678L70.7431 33.3237L72.8556 23.0251H77.0015L79.1404 33.3237L79.6157 37.3111H80.0382L80.5135 33.218L82.2299 23.0251H85.8212L81.9659 41.4569H77.688L75.5227 30.8415L75.0474 27.171H74.6249L74.1495 30.8415L71.9842 41.4569H67.6007Z" fill="#011C7E"/>
<path d="M94.3862 41.7738C93.2772 41.7738 92.2737 41.6065 91.3759 41.272C90.4781 40.92 89.7123 40.3654 89.0785 39.6084C88.4448 38.8338 87.9519 37.848 87.5998 36.6509C87.2477 35.4362 87.0716 33.9662 87.0716 32.241C87.0716 30.5158 87.2477 29.0546 87.5998 27.8575C87.9519 26.6428 88.4448 25.657 89.0785 24.9C89.7123 24.1254 90.4781 23.5709 91.3759 23.2364C92.2737 22.8843 93.2772 22.7082 94.3862 22.7082C95.4953 22.7082 96.4988 22.8843 97.3966 23.2364C98.2944 23.5709 99.0602 24.1254 99.694 24.9C100.328 25.657 100.821 26.6428 101.173 27.8575C101.525 29.0546 101.701 30.5158 101.701 32.241C101.701 33.9662 101.525 35.4362 101.173 36.6509C100.821 37.848 100.328 38.8338 99.694 39.6084C99.0602 40.3654 98.2944 40.92 97.3966 41.272C96.4988 41.6065 95.4953 41.7738 94.3862 41.7738ZM94.3862 38.4465C95.4425 38.4465 96.2523 38.1297 96.8156 37.4959C97.3966 36.8622 97.6871 35.9115 97.6871 34.644V29.838C97.6871 28.5705 97.3966 27.6199 96.8156 26.9861C96.2523 26.3523 95.4425 26.0355 94.3862 26.0355C93.33 26.0355 92.5114 26.3523 91.9304 26.9861C91.3671 27.6199 91.0854 28.5705 91.0854 29.838V34.644C91.0854 35.9115 91.3671 36.8622 91.9304 37.4959C92.5114 38.1297 93.33 38.4465 94.3862 38.4465Z" fill="#011C7E"/>
<path d="M108.424 41.4569H104.648V23.0251H112.623C114.277 23.0251 115.536 23.5445 116.399 24.5831C117.261 25.6218 117.693 27.0125 117.693 28.7553C117.693 30.1109 117.437 31.2552 116.927 32.1882C116.416 33.1212 115.659 33.7726 114.656 34.1423L117.878 41.4569H113.785L110.933 34.4856H108.424V41.4569ZM112.147 31.3432C112.658 31.3432 113.054 31.22 113.336 30.9735C113.635 30.7094 113.785 30.2605 113.785 29.6268V28.0424C113.785 27.4086 113.635 26.9685 113.336 26.722C113.054 26.458 112.658 26.3259 112.147 26.3259H108.424V31.3432H112.147Z" fill="#011C7E"/>
<path d="M126.68 33.2973L124.541 36.202V41.4569H120.765V23.0251H124.541V28.993L124.383 31.9241H124.805L126.627 28.993L130.641 23.0251H134.919L129.347 30.7094L135.394 41.4569H130.958L126.68 33.2973Z" fill="#011C7E"/>
<path d="M142.527 41.7738C139.763 41.7738 137.598 40.8055 136.031 38.869L138.461 36.4396C139.517 37.7952 140.899 38.4729 142.606 38.4729C144.367 38.4729 145.247 37.6984 145.247 36.1492C145.247 35.5154 145.089 35.0225 144.772 34.6704C144.455 34.3183 143.962 34.0719 143.293 33.931L141.603 33.6141C139.895 33.2973 138.637 32.7075 137.827 31.8449C137.035 30.9647 136.639 29.75 136.639 28.2008C136.639 26.4052 137.167 25.0408 138.223 24.1078C139.279 23.1748 140.828 22.7082 142.871 22.7082C145.476 22.7082 147.456 23.5533 148.812 25.2433L146.383 27.6727C145.925 27.1093 145.406 26.6956 144.825 26.4316C144.261 26.1499 143.592 26.0091 142.818 26.0091C141.973 26.0091 141.357 26.1675 140.969 26.4844C140.6 26.8013 140.415 27.3118 140.415 28.016C140.415 28.6321 140.556 29.0986 140.837 29.4155C141.136 29.7324 141.612 29.9612 142.263 30.1021L143.953 30.4454C144.851 30.639 145.617 30.8767 146.251 31.1583C146.902 31.4224 147.43 31.7657 147.835 32.1882C148.257 32.6107 148.557 33.1124 148.733 33.6934C148.926 34.2743 149.023 34.9521 149.023 35.7267C149.023 37.6984 148.469 39.2035 147.36 40.2422C146.251 41.2632 144.64 41.7738 142.527 41.7738Z" fill="#011C7E"/>
<path d="M19.8448 3.40079L40.6759 1.79425L36.7182 24.3609L19.8448 3.40079Z" fill="#5BFFB0"/>
<path d="M18.579 4.26799L24.2533 24.3756L6.50779 24.3619L18.579 4.26799Z" fill="#5BFFB0"/>
<path d="M38.9906 26.8875L52.3771 24.9093L51.8449 33.7725L38.9906 26.8875Z" fill="#5BFFB0"/>
<path d="M27.1407 38.9169L30.8376 25.9777L38.6718 29.8245L27.1407 38.9169Z" fill="#5BFFB0"/>
<path d="M19.8449 3.40072L36.7183 24.3608L27.3985 22.6082L19.8449 3.40072Z" fill="#041B6E"/>
<path d="M18.579 4.26804L6.72013 24.2049L1.23348 15.4536L18.579 4.26804Z" fill="#041B6E"/>
<path d="M42.6941 5.17254L52.3771 24.9093L38.9906 26.8875L42.6941 5.17254Z" fill="#041B6E"/>
<path d="M8.78239 26.7622L30.8376 25.9777L27.155 38.9098L8.78239 26.7622Z" fill="#041B6E"/>
</svg>
